<svg xmlns="http://www.w3.org/2000/svg" viewBox="0 0 320 130" width="1280" height="520"><line x1="111.9" y1="43.0" x2="130.1" y2="17.0" stroke="#f4f5f7" stroke-width="5" stroke-linecap="round" /><line x1="150.9" y1="20.9" x2="169.1" y2="39.1" stroke="#f4f5f7" stroke-width="5" stroke-linecap="round" /><line x1="169.1" y1="20.9" x2="150.9" y2="39.1" stroke="#f4f5f7" stroke-width="5" stroke-linecap="round" /><line x1="189.9" y1="20.9" x2="208.1" y2="39.1" stroke="#d93a3a" stroke-width="5" stroke-linecap="round" /><line x1="208.1" y1="20.9" x2="189.9" y2="39.1" stroke="#d93a3a" stroke-width="5" stroke-linecap="round" /><circle cx="199.0" cy="30.0" r="14.9" fill="none" stroke="#d93a3a" stroke-width="5" /><g transform="translate(0 66)"><line x1="43.60" y1="2.00" x2="48.20" y2="2.00" stroke="#0b0d11" stroke-width="6" stroke-linecap="round" /><line x1="51.80" y1="2.00" x2="56.40" y2="2.00" stroke="#0b0d11" stroke-width="6" stroke-linecap="round" /><line x1="50.00" y1="4.20" x2="50.00" y2="16.80" stroke="#0b0d11" stroke-width="6" stroke-linecap="round" /><line x1="50.00" y1="21.20" x2="50.00" y2="33.80" stroke="#0b0d11" stroke-width="6" stroke-linecap="round" /><line x1="80.60" y1="4.20" x2="80.60" y2="16.80" stroke="#0b0d11" stroke-width="6" stroke-linecap="round" /><line x1="80.60" y1="21.20" x2="80.60" y2="33.80" stroke="#0b0d11" stroke-width="6" stroke-linecap="round" /><line x1="64.20" y1="21.20" x2="64.20" y2="33.80" stroke="#0b0d11" stroke-width="6" stroke-linecap="round" /><line x1="64.20" y1="4.20" x2="64.20" y2="16.80" stroke="#0b0d11" stroke-width="6" stroke-linecap="round" /><line x1="66.00" y1="19.00" x2="70.60" y2="19.00" stroke="#0b0d11" stroke-width="6" stroke-linecap="round" /><line x1="74.20" y1="19.00" x2="78.80" y2="19.00" stroke="#0b0d11" stroke-width="6" stroke-linecap="round" /><line x1="88.40" y1="2.00" x2="93.00" y2="2.00" stroke="#0b0d11" stroke-width="6" stroke-linecap="round" /><line x1="96.60" y1="2.00" x2="101.20" y2="2.00" stroke="#0b0d11" stroke-width="6" stroke-linecap="round" /><line x1="103.00" y1="4.20" x2="103.00" y2="16.80" stroke="#0b0d11" stroke-width="6" stroke-linecap="round" /><line x1="86.60" y1="4.20" x2="86.60" y2="16.80" stroke="#0b0d11" stroke-width="6" stroke-linecap="round" /><line x1="86.60" y1="21.20" x2="86.60" y2="33.80" stroke="#0b0d11" stroke-width="6" stroke-linecap="round" /><line x1="88.40" y1="19.00" x2="93.00" y2="19.00" stroke="#0b0d11" stroke-width="6" stroke-linecap="round" /><line x1="96.60" y1="19.00" x2="101.20" y2="19.00" stroke="#0b0d11" stroke-width="6" stroke-linecap="round" /><line x1="95.71" y1="20.90" x2="102.09" y2="34.10" stroke="#0b0d11" stroke-width="6" stroke-linecap="round" /><line x1="110.80" y1="2.00" x2="115.40" y2="2.00" stroke="#0b0d11" stroke-width="6" stroke-linecap="round" /><line x1="119.00" y1="2.00" x2="123.60" y2="2.00" stroke="#0b0d11" stroke-width="6" stroke-linecap="round" /><line x1="110.80" y1="36.00" x2="115.40" y2="36.00" stroke="#0b0d11" stroke-width="6" stroke-linecap="round" /><line x1="119.00" y1="36.00" x2="123.60" y2="36.00" stroke="#0b0d11" stroke-width="6" stroke-linecap="round" /><line x1="109.00" y1="21.20" x2="109.00" y2="33.80" stroke="#0b0d11" stroke-width="6" stroke-linecap="round" /><line x1="109.00" y1="4.20" x2="109.00" y2="16.80" stroke="#0b0d11" stroke-width="6" stroke-linecap="round" /><line x1="110.80" y1="19.00" x2="115.40" y2="19.00" stroke="#0b0d11" stroke-width="6" stroke-linecap="round" /><line x1="133.20" y1="2.00" x2="137.80" y2="2.00" stroke="#0b0d11" stroke-width="6" stroke-linecap="round" /><line x1="141.40" y1="2.00" x2="146.00" y2="2.00" stroke="#0b0d11" stroke-width="6" stroke-linecap="round" /><line x1="133.20" y1="36.00" x2="137.80" y2="36.00" stroke="#0b0d11" stroke-width="6" stroke-linecap="round" /><line x1="141.40" y1="36.00" x2="146.00" y2="36.00" stroke="#0b0d11" stroke-width="6" stroke-linecap="round" /><line x1="131.40" y1="21.20" x2="131.40" y2="33.80" stroke="#0b0d11" stroke-width="6" stroke-linecap="round" /><line x1="131.40" y1="4.20" x2="131.40" y2="16.80" stroke="#0b0d11" stroke-width="6" stroke-linecap="round" /><line x1="133.20" y1="19.00" x2="137.80" y2="19.00" stroke="#0b0d11" stroke-width="6" stroke-linecap="round" /><line x1="192.60" y1="4.20" x2="192.60" y2="16.80" stroke="#0b0d11" stroke-width="6" stroke-linecap="round" /><line x1="192.60" y1="21.20" x2="192.60" y2="33.80" stroke="#0b0d11" stroke-width="6" stroke-linecap="round" /><line x1="176.20" y1="21.20" x2="176.20" y2="33.80" stroke="#0b0d11" stroke-width="6" stroke-linecap="round" /><line x1="176.20" y1="4.20" x2="176.20" y2="16.80" stroke="#0b0d11" stroke-width="6" stroke-linecap="round" /><line x1="177.11" y1="3.90" x2="183.49" y2="17.10" stroke="#0b0d11" stroke-width="6" stroke-linecap="round" /><line x1="191.69" y1="3.90" x2="185.31" y2="17.10" stroke="#0b0d11" stroke-width="6" stroke-linecap="round" /><line x1="200.40" y1="2.00" x2="205.00" y2="2.00" stroke="#0b0d11" stroke-width="6" stroke-linecap="round" /><line x1="208.60" y1="2.00" x2="213.20" y2="2.00" stroke="#0b0d11" stroke-width="6" stroke-linecap="round" /><line x1="215.00" y1="4.20" x2="215.00" y2="16.80" stroke="#0b0d11" stroke-width="6" stroke-linecap="round" /><line x1="215.00" y1="21.20" x2="215.00" y2="33.80" stroke="#0b0d11" stroke-width="6" stroke-linecap="round" /><line x1="198.60" y1="21.20" x2="198.60" y2="33.80" stroke="#0b0d11" stroke-width="6" stroke-linecap="round" /><line x1="198.60" y1="4.20" x2="198.60" y2="16.80" stroke="#0b0d11" stroke-width="6" stroke-linecap="round" /><line x1="200.40" y1="19.00" x2="205.00" y2="19.00" stroke="#0b0d11" stroke-width="6" stroke-linecap="round" /><line x1="208.60" y1="19.00" x2="213.20" y2="19.00" stroke="#0b0d11" stroke-width="6" stroke-linecap="round" /><line x1="222.80" y1="2.00" x2="227.40" y2="2.00" stroke="#0b0d11" stroke-width="6" stroke-linecap="round" /><line x1="231.00" y1="2.00" x2="235.60" y2="2.00" stroke="#0b0d11" stroke-width="6" stroke-linecap="round" /><line x1="237.40" y1="4.20" x2="237.40" y2="16.80" stroke="#0b0d11" stroke-width="6" stroke-linecap="round" /><line x1="221.00" y1="4.20" x2="221.00" y2="16.80" stroke="#0b0d11" stroke-width="6" stroke-linecap="round" /><line x1="221.00" y1="21.20" x2="221.00" y2="33.80" stroke="#0b0d11" stroke-width="6" stroke-linecap="round" /><line x1="222.80" y1="19.00" x2="227.40" y2="19.00" stroke="#0b0d11" stroke-width="6" stroke-linecap="round" /><line x1="231.00" y1="19.00" x2="235.60" y2="19.00" stroke="#0b0d11" stroke-width="6" stroke-linecap="round" /><line x1="230.11" y1="20.90" x2="236.49" y2="34.10" stroke="#0b0d11" stroke-width="6" stroke-linecap="round" /><line x1="243.40" y1="21.20" x2="243.40" y2="33.80" stroke="#0b0d11" stroke-width="6" stroke-linecap="round" /><line x1="243.40" y1="4.20" x2="243.40" y2="16.80" stroke="#0b0d11" stroke-width="6" stroke-linecap="round" /><line x1="245.20" y1="19.00" x2="249.80" y2="19.00" stroke="#0b0d11" stroke-width="6" stroke-linecap="round" /><line x1="258.89" y1="3.90" x2="252.51" y2="17.10" stroke="#0b0d11" stroke-width="6" stroke-linecap="round" /><line x1="252.51" y1="20.90" x2="258.89" y2="34.10" stroke="#0b0d11" stroke-width="6" stroke-linecap="round" /><line x1="267.60" y1="2.00" x2="272.20" y2="2.00" stroke="#0b0d11" stroke-width="6" stroke-linecap="round" /><line x1="275.80" y1="2.00" x2="280.40" y2="2.00" stroke="#0b0d11" stroke-width="6" stroke-linecap="round" /><line x1="265.80" y1="4.20" x2="265.80" y2="16.80" stroke="#0b0d11" stroke-width="6" stroke-linecap="round" /><line x1="267.60" y1="19.00" x2="272.20" y2="19.00" stroke="#0b0d11" stroke-width="6" stroke-linecap="round" /><line x1="275.80" y1="19.00" x2="280.40" y2="19.00" stroke="#0b0d11" stroke-width="6" stroke-linecap="round" /><line x1="282.20" y1="21.20" x2="282.20" y2="33.80" stroke="#0b0d11" stroke-width="6" stroke-linecap="round" /><line x1="267.60" y1="36.00" x2="272.20" y2="36.00" stroke="#0b0d11" stroke-width="6" stroke-linecap="round" /><line x1="275.80" y1="36.00" x2="280.40" y2="36.00" stroke="#0b0d11" stroke-width="6" stroke-linecap="round" /></g><g transform="translate(0 64)"><line x1="41.60" y1="0.00" x2="46.20" y2="0.00" stroke="#f4f5f7" stroke-width="6" stroke-linecap="round" /><line x1="49.80" y1="0.00" x2="54.40" y2="0.00" stroke="#f4f5f7" stroke-width="6" stroke-linecap="round" /><line x1="48.00" y1="2.20" x2="48.00" y2="14.80" stroke="#f4f5f7" stroke-width="6" stroke-linecap="round" /><line x1="48.00" y1="19.20" x2="48.00" y2="31.80" stroke="#f4f5f7" stroke-width="6" stroke-linecap="round" /><line x1="78.60" y1="2.20" x2="78.60" y2="14.80" stroke="#f4f5f7" stroke-width="6" stroke-linecap="round" /><line x1="78.60" y1="19.20" x2="78.60" y2="31.80" stroke="#f4f5f7" stroke-width="6" stroke-linecap="round" /><line x1="62.20" y1="19.20" x2="62.20" y2="31.80" stroke="#f4f5f7" stroke-width="6" stroke-linecap="round" /><line x1="62.20" y1="2.20" x2="62.20" y2="14.80" stroke="#f4f5f7" stroke-width="6" stroke-linecap="round" /><line x1="64.00" y1="17.00" x2="68.60" y2="17.00" stroke="#f4f5f7" stroke-width="6" stroke-linecap="round" /><line x1="72.20" y1="17.00" x2="76.80" y2="17.00" stroke="#f4f5f7" stroke-width="6" stroke-linecap="round" /><line x1="86.40" y1="0.00" x2="91.00" y2="0.00" stroke="#f4f5f7" stroke-width="6" stroke-linecap="round" /><line x1="94.60" y1="0.00" x2="99.20" y2="0.00" stroke="#f4f5f7" stroke-width="6" stroke-linecap="round" /><line x1="101.00" y1="2.20" x2="101.00" y2="14.80" stroke="#f4f5f7" stroke-width="6" stroke-linecap="round" /><line x1="84.60" y1="2.20" x2="84.60" y2="14.80" stroke="#f4f5f7" stroke-width="6" stroke-linecap="round" /><line x1="84.60" y1="19.20" x2="84.60" y2="31.80" stroke="#f4f5f7" stroke-width="6" stroke-linecap="round" /><line x1="86.40" y1="17.00" x2="91.00" y2="17.00" stroke="#f4f5f7" stroke-width="6" stroke-linecap="round" /><line x1="94.60" y1="17.00" x2="99.20" y2="17.00" stroke="#f4f5f7" stroke-width="6" stroke-linecap="round" /><line x1="93.71" y1="18.90" x2="100.09" y2="32.10" stroke="#f4f5f7" stroke-width="6" stroke-linecap="round" /><line x1="108.80" y1="0.00" x2="113.40" y2="0.00" stroke="#f4f5f7" stroke-width="6" stroke-linecap="round" /><line x1="117.00" y1="0.00" x2="121.60" y2="0.00" stroke="#f4f5f7" stroke-width="6" stroke-linecap="round" /><line x1="108.80" y1="34.00" x2="113.40" y2="34.00" stroke="#f4f5f7" stroke-width="6" stroke-linecap="round" /><line x1="117.00" y1="34.00" x2="121.60" y2="34.00" stroke="#f4f5f7" stroke-width="6" stroke-linecap="round" /><line x1="107.00" y1="19.20" x2="107.00" y2="31.80" stroke="#f4f5f7" stroke-width="6" stroke-linecap="round" /><line x1="107.00" y1="2.20" x2="107.00" y2="14.80" stroke="#f4f5f7" stroke-width="6" stroke-linecap="round" /><line x1="108.80" y1="17.00" x2="113.40" y2="17.00" stroke="#f4f5f7" stroke-width="6" stroke-linecap="round" /><line x1="131.20" y1="0.00" x2="135.80" y2="0.00" stroke="#f4f5f7" stroke-width="6" stroke-linecap="round" /><line x1="139.40" y1="0.00" x2="144.00" y2="0.00" stroke="#f4f5f7" stroke-width="6" stroke-linecap="round" /><line x1="131.20" y1="34.00" x2="135.80" y2="34.00" stroke="#f4f5f7" stroke-width="6" stroke-linecap="round" /><line x1="139.40" y1="34.00" x2="144.00" y2="34.00" stroke="#f4f5f7" stroke-width="6" stroke-linecap="round" /><line x1="129.40" y1="19.20" x2="129.40" y2="31.80" stroke="#f4f5f7" stroke-width="6" stroke-linecap="round" /><line x1="129.40" y1="2.20" x2="129.40" y2="14.80" stroke="#f4f5f7" stroke-width="6" stroke-linecap="round" /><line x1="131.20" y1="17.00" x2="135.80" y2="17.00" stroke="#f4f5f7" stroke-width="6" stroke-linecap="round" /><line x1="190.60" y1="2.20" x2="190.60" y2="14.80" stroke="#f4f5f7" stroke-width="6" stroke-linecap="round" /><line x1="190.60" y1="19.20" x2="190.60" y2="31.80" stroke="#f4f5f7" stroke-width="6" stroke-linecap="round" /><line x1="174.20" y1="19.20" x2="174.20" y2="31.80" stroke="#f4f5f7" stroke-width="6" stroke-linecap="round" /><line x1="174.20" y1="2.20" x2="174.20" y2="14.80" stroke="#f4f5f7" stroke-width="6" stroke-linecap="round" /><line x1="175.11" y1="1.90" x2="181.49" y2="15.10" stroke="#f4f5f7" stroke-width="6" stroke-linecap="round" /><line x1="189.69" y1="1.90" x2="183.31" y2="15.10" stroke="#f4f5f7" stroke-width="6" stroke-linecap="round" /><line x1="198.40" y1="0.00" x2="203.00" y2="0.00" stroke="#f4f5f7" stroke-width="6" stroke-linecap="round" /><line x1="206.60" y1="0.00" x2="211.20" y2="0.00" stroke="#f4f5f7" stroke-width="6" stroke-linecap="round" /><line x1="213.00" y1="2.20" x2="213.00" y2="14.80" stroke="#f4f5f7" stroke-width="6" stroke-linecap="round" /><line x1="213.00" y1="19.20" x2="213.00" y2="31.80" stroke="#f4f5f7" stroke-width="6" stroke-linecap="round" /><line x1="196.60" y1="19.20" x2="196.60" y2="31.80" stroke="#f4f5f7" stroke-width="6" stroke-linecap="round" /><line x1="196.60" y1="2.20" x2="196.60" y2="14.80" stroke="#f4f5f7" stroke-width="6" stroke-linecap="round" /><line x1="198.40" y1="17.00" x2="203.00" y2="17.00" stroke="#f4f5f7" stroke-width="6" stroke-linecap="round" /><line x1="206.60" y1="17.00" x2="211.20" y2="17.00" stroke="#f4f5f7" stroke-width="6" stroke-linecap="round" /><line x1="220.80" y1="0.00" x2="225.40" y2="0.00" stroke="#f4f5f7" stroke-width="6" stroke-linecap="round" /><line x1="229.00" y1="0.00" x2="233.60" y2="0.00" stroke="#f4f5f7" stroke-width="6" stroke-linecap="round" /><line x1="235.40" y1="2.20" x2="235.40" y2="14.80" stroke="#f4f5f7" stroke-width="6" stroke-linecap="round" /><line x1="219.00" y1="2.20" x2="219.00" y2="14.80" stroke="#f4f5f7" stroke-width="6" stroke-linecap="round" /><line x1="219.00" y1="19.20" x2="219.00" y2="31.80" stroke="#f4f5f7" stroke-width="6" stroke-linecap="round" /><line x1="220.80" y1="17.00" x2="225.40" y2="17.00" stroke="#f4f5f7" stroke-width="6" stroke-linecap="round" /><line x1="229.00" y1="17.00" x2="233.60" y2="17.00" stroke="#f4f5f7" stroke-width="6" stroke-linecap="round" /><line x1="228.11" y1="18.90" x2="234.49" y2="32.10" stroke="#f4f5f7" stroke-width="6" stroke-linecap="round" /><line x1="241.40" y1="19.20" x2="241.40" y2="31.80" stroke="#f4f5f7" stroke-width="6" stroke-linecap="round" /><line x1="241.40" y1="2.20" x2="241.40" y2="14.80" stroke="#f4f5f7" stroke-width="6" stroke-linecap="round" /><line x1="243.20" y1="17.00" x2="247.80" y2="17.00" stroke="#f4f5f7" stroke-width="6" stroke-linecap="round" /><line x1="256.89" y1="1.90" x2="250.51" y2="15.10" stroke="#f4f5f7" stroke-width="6" stroke-linecap="round" /><line x1="250.51" y1="18.90" x2="256.89" y2="32.10" stroke="#f4f5f7" stroke-width="6" stroke-linecap="round" /><line x1="265.60" y1="0.00" x2="270.20" y2="0.00" stroke="#f4f5f7" stroke-width="6" stroke-linecap="round" /><line x1="273.80" y1="0.00" x2="278.40" y2="0.00" stroke="#f4f5f7" stroke-width="6" stroke-linecap="round" /><line x1="263.80" y1="2.20" x2="263.80" y2="14.80" stroke="#f4f5f7" stroke-width="6" stroke-linecap="round" /><line x1="265.60" y1="17.00" x2="270.20" y2="17.00" stroke="#f4f5f7" stroke-width="6" stroke-linecap="round" /><line x1="273.80" y1="17.00" x2="278.40" y2="17.00" stroke="#f4f5f7" stroke-width="6" stroke-linecap="round" /><line x1="280.20" y1="19.20" x2="280.20" y2="31.80" stroke="#f4f5f7" stroke-width="6" stroke-linecap="round" /><line x1="265.60" y1="34.00" x2="270.20" y2="34.00" stroke="#f4f5f7" stroke-width="6" stroke-linecap="round" /><line x1="273.80" y1="34.00" x2="278.40" y2="34.00" stroke="#f4f5f7" stroke-width="6" stroke-linecap="round" /></g><rect x="39.80000000000001" y="112" width="240.39999999999998" height="4" rx="2" fill="#d93a3a"/></svg>
