<svg xmlns="http://www.w3.org/2000/svg" viewBox="0 0 320 130" width="1280" height="520"><defs><filter id="g" x="-30%" y="-60%" width="160%" height="220%"><feGaussianBlur stdDeviation="1.6" result="b"/><feMerge><feMergeNode in="b"/><feMergeNode in="b"/><feMergeNode in="SourceGraphic"/></feMerge></filter></defs><g filter="url(#g)"><line x1="111.9" y1="43.0" x2="130.1" y2="17.0" stroke="#19d4f0" stroke-width="3" stroke-linecap="round" /><line x1="150.9" y1="20.9" x2="169.1" y2="39.1" stroke="#19d4f0" stroke-width="3" stroke-linecap="round" /><line x1="169.1" y1="20.9" x2="150.9" y2="39.1" stroke="#19d4f0" stroke-width="3" stroke-linecap="round" /><line x1="189.9" y1="20.9" x2="208.1" y2="39.1" stroke="#ff4f8b" stroke-width="3" stroke-linecap="round" /><line x1="208.1" y1="20.9" x2="189.9" y2="39.1" stroke="#ff4f8b" stroke-width="3" stroke-linecap="round" /><circle cx="199.0" cy="30.0" r="14.9" fill="none" stroke="#ff4f8b" stroke-width="3" /><g transform="translate(0 64)"><line x1="41.60" y1="0.00" x2="46.20" y2="0.00" stroke="#19d4f0" stroke-width="3" stroke-linecap="round" /><line x1="49.80" y1="0.00" x2="54.40" y2="0.00" stroke="#19d4f0" stroke-width="3" stroke-linecap="round" /><line x1="48.00" y1="2.20" x2="48.00" y2="14.80" stroke="#19d4f0" stroke-width="3" stroke-linecap="round" /><line x1="48.00" y1="19.20" x2="48.00" y2="31.80" stroke="#19d4f0" stroke-width="3" stroke-linecap="round" /><line x1="78.60" y1="2.20" x2="78.60" y2="14.80" stroke="#19d4f0" stroke-width="3" stroke-linecap="round" /><line x1="78.60" y1="19.20" x2="78.60" y2="31.80" stroke="#19d4f0" stroke-width="3" stroke-linecap="round" /><line x1="62.20" y1="19.20" x2="62.20" y2="31.80" stroke="#19d4f0" stroke-width="3" stroke-linecap="round" /><line x1="62.20" y1="2.20" x2="62.20" y2="14.80" stroke="#19d4f0" stroke-width="3" stroke-linecap="round" /><line x1="64.00" y1="17.00" x2="68.60" y2="17.00" stroke="#19d4f0" stroke-width="3" stroke-linecap="round" /><line x1="72.20" y1="17.00" x2="76.80" y2="17.00" stroke="#19d4f0" stroke-width="3" stroke-linecap="round" /><line x1="86.40" y1="0.00" x2="91.00" y2="0.00" stroke="#19d4f0" stroke-width="3" stroke-linecap="round" /><line x1="94.60" y1="0.00" x2="99.20" y2="0.00" stroke="#19d4f0" stroke-width="3" stroke-linecap="round" /><line x1="101.00" y1="2.20" x2="101.00" y2="14.80" stroke="#19d4f0" stroke-width="3" stroke-linecap="round" /><line x1="84.60" y1="2.20" x2="84.60" y2="14.80" stroke="#19d4f0" stroke-width="3" stroke-linecap="round" /><line x1="84.60" y1="19.20" x2="84.60" y2="31.80" stroke="#19d4f0" stroke-width="3" stroke-linecap="round" /><line x1="86.40" y1="17.00" x2="91.00" y2="17.00" stroke="#19d4f0" stroke-width="3" stroke-linecap="round" /><line x1="94.60" y1="17.00" x2="99.20" y2="17.00" stroke="#19d4f0" stroke-width="3" stroke-linecap="round" /><line x1="93.71" y1="18.90" x2="100.09" y2="32.10" stroke="#19d4f0" stroke-width="3" stroke-linecap="round" /><line x1="108.80" y1="0.00" x2="113.40" y2="0.00" stroke="#19d4f0" stroke-width="3" stroke-linecap="round" /><line x1="117.00" y1="0.00" x2="121.60" y2="0.00" stroke="#19d4f0" stroke-width="3" stroke-linecap="round" /><line x1="108.80" y1="34.00" x2="113.40" y2="34.00" stroke="#19d4f0" stroke-width="3" stroke-linecap="round" /><line x1="117.00" y1="34.00" x2="121.60" y2="34.00" stroke="#19d4f0" stroke-width="3" stroke-linecap="round" /><line x1="107.00" y1="19.20" x2="107.00" y2="31.80" stroke="#19d4f0" stroke-width="3" stroke-linecap="round" /><line x1="107.00" y1="2.20" x2="107.00" y2="14.80" stroke="#19d4f0" stroke-width="3" stroke-linecap="round" /><line x1="108.80" y1="17.00" x2="113.40" y2="17.00" stroke="#19d4f0" stroke-width="3" stroke-linecap="round" /><line x1="131.20" y1="0.00" x2="135.80" y2="0.00" stroke="#19d4f0" stroke-width="3" stroke-linecap="round" /><line x1="139.40" y1="0.00" x2="144.00" y2="0.00" stroke="#19d4f0" stroke-width="3" stroke-linecap="round" /><line x1="131.20" y1="34.00" x2="135.80" y2="34.00" stroke="#19d4f0" stroke-width="3" stroke-linecap="round" /><line x1="139.40" y1="34.00" x2="144.00" y2="34.00" stroke="#19d4f0" stroke-width="3" stroke-linecap="round" /><line x1="129.40" y1="19.20" x2="129.40" y2="31.80" stroke="#19d4f0" stroke-width="3" stroke-linecap="round" /><line x1="129.40" y1="2.20" x2="129.40" y2="14.80" stroke="#19d4f0" stroke-width="3" stroke-linecap="round" /><line x1="131.20" y1="17.00" x2="135.80" y2="17.00" stroke="#19d4f0" stroke-width="3" stroke-linecap="round" /><line x1="190.60" y1="2.20" x2="190.60" y2="14.80" stroke="#19d4f0" stroke-width="3" stroke-linecap="round" /><line x1="190.60" y1="19.20" x2="190.60" y2="31.80" stroke="#19d4f0" stroke-width="3" stroke-linecap="round" /><line x1="174.20" y1="19.20" x2="174.20" y2="31.80" stroke="#19d4f0" stroke-width="3" stroke-linecap="round" /><line x1="174.20" y1="2.20" x2="174.20" y2="14.80" stroke="#19d4f0" stroke-width="3" stroke-linecap="round" /><line x1="175.11" y1="1.90" x2="181.49" y2="15.10" stroke="#19d4f0" stroke-width="3" stroke-linecap="round" /><line x1="189.69" y1="1.90" x2="183.31" y2="15.10" stroke="#19d4f0" stroke-width="3" stroke-linecap="round" /><line x1="198.40" y1="0.00" x2="203.00" y2="0.00" stroke="#19d4f0" stroke-width="3" stroke-linecap="round" /><line x1="206.60" y1="0.00" x2="211.20" y2="0.00" stroke="#19d4f0" stroke-width="3" stroke-linecap="round" /><line x1="213.00" y1="2.20" x2="213.00" y2="14.80" stroke="#19d4f0" stroke-width="3" stroke-linecap="round" /><line x1="213.00" y1="19.20" x2="213.00" y2="31.80" stroke="#19d4f0" stroke-width="3" stroke-linecap="round" /><line x1="196.60" y1="19.20" x2="196.60" y2="31.80" stroke="#19d4f0" stroke-width="3" stroke-linecap="round" /><line x1="196.60" y1="2.20" x2="196.60" y2="14.80" stroke="#19d4f0" stroke-width="3" stroke-linecap="round" /><line x1="198.40" y1="17.00" x2="203.00" y2="17.00" stroke="#19d4f0" stroke-width="3" stroke-linecap="round" /><line x1="206.60" y1="17.00" x2="211.20" y2="17.00" stroke="#19d4f0" stroke-width="3" stroke-linecap="round" /><line x1="220.80" y1="0.00" x2="225.40" y2="0.00" stroke="#19d4f0" stroke-width="3" stroke-linecap="round" /><line x1="229.00" y1="0.00" x2="233.60" y2="0.00" stroke="#19d4f0" stroke-width="3" stroke-linecap="round" /><line x1="235.40" y1="2.20" x2="235.40" y2="14.80" stroke="#19d4f0" stroke-width="3" stroke-linecap="round" /><line x1="219.00" y1="2.20" x2="219.00" y2="14.80" stroke="#19d4f0" stroke-width="3" stroke-linecap="round" /><line x1="219.00" y1="19.20" x2="219.00" y2="31.80" stroke="#19d4f0" stroke-width="3" stroke-linecap="round" /><line x1="220.80" y1="17.00" x2="225.40" y2="17.00" stroke="#19d4f0" stroke-width="3" stroke-linecap="round" /><line x1="229.00" y1="17.00" x2="233.60" y2="17.00" stroke="#19d4f0" stroke-width="3" stroke-linecap="round" /><line x1="228.11" y1="18.90" x2="234.49" y2="32.10" stroke="#19d4f0" stroke-width="3" stroke-linecap="round" /><line x1="241.40" y1="19.20" x2="241.40" y2="31.80" stroke="#19d4f0" stroke-width="3" stroke-linecap="round" /><line x1="241.40" y1="2.20" x2="241.40" y2="14.80" stroke="#19d4f0" stroke-width="3" stroke-linecap="round" /><line x1="243.20" y1="17.00" x2="247.80" y2="17.00" stroke="#19d4f0" stroke-width="3" stroke-linecap="round" /><line x1="256.89" y1="1.90" x2="250.51" y2="15.10" stroke="#19d4f0" stroke-width="3" stroke-linecap="round" /><line x1="250.51" y1="18.90" x2="256.89" y2="32.10" stroke="#19d4f0" stroke-width="3" stroke-linecap="round" /><line x1="265.60" y1="0.00" x2="270.20" y2="0.00" stroke="#19d4f0" stroke-width="3" stroke-linecap="round" /><line x1="273.80" y1="0.00" x2="278.40" y2="0.00" stroke="#19d4f0" stroke-width="3" stroke-linecap="round" /><line x1="263.80" y1="2.20" x2="263.80" y2="14.80" stroke="#19d4f0" stroke-width="3" stroke-linecap="round" /><line x1="265.60" y1="17.00" x2="270.20" y2="17.00" stroke="#19d4f0" stroke-width="3" stroke-linecap="round" /><line x1="273.80" y1="17.00" x2="278.40" y2="17.00" stroke="#19d4f0" stroke-width="3" stroke-linecap="round" /><line x1="280.20" y1="19.20" x2="280.20" y2="31.80" stroke="#19d4f0" stroke-width="3" stroke-linecap="round" /><line x1="265.60" y1="34.00" x2="270.20" y2="34.00" stroke="#19d4f0" stroke-width="3" stroke-linecap="round" /><line x1="273.80" y1="34.00" x2="278.40" y2="34.00" stroke="#19d4f0" stroke-width="3" stroke-linecap="round" /></g><line x1="39.80000000000001" y1="114" x2="280.2" y2="114" stroke="#ff4f8b" stroke-width="2"/></g></svg>
